<svg xmlns="http://www.w3.org/2000/svg" xmlns:xlink="http://www.w3.org/1999/xlink" width="927.25" height="179.188" viewBox="0 0 927.25 179.188">
  <defs>
    <style>
      .cls-1 {
        fill: #fff;
        fill-rule: evenodd;
        filter: url(#filter);
      }
    </style>
    <filter id="filter" x="36.375" y="541.406" width="927.25" height="179.188" filterUnits="userSpaceOnUse">
      <feFlood result="flood" flood-color="#8ff759"/>
      <feComposite result="composite" operator="in" in2="SourceGraphic"/>
      <feBlend result="blend" in2="SourceGraphic"/>
    </filter>
  </defs>
  <path class="cls-1" d="M121.247,563.422l53.434,15.716h94.3l128.87,3.143h81.722l348.893-12.573s31.53,2.664,47.148,3.143,72.292,6.287,72.292,6.287l15.716,28.288L957.332,642,903.9,657.717H815.889l-25.145-3.143-12.573,18.859-18.859,44-59.72,3.143L671.3,708.008l-34.575-28.289-47.147-3.143-37.719,31.432-44,12.572-44-25.145-37.719,6.286-50.29,18.859-40.862-34.574-22-12.573-44-3.143L212.4,673.433l-34.574,3.143-44-6.286V635.715L99.245,620,64.67,607.426l-25.145-22-3.143-34.575,75.436-9.43Z" transform="translate(-36.375 -541.406)"/>
</svg>
